<svg width="42" height="42" viewBox="0 0 42 42" fill="currentColor" xmlns="http://www.w3.org/2000/svg">
<path d="M41.5854 39.1545L30.5514 28.1204C33.3379 24.6949 34.7039 20.3308 34.3676 15.9279C34.0314 11.525 32.0186 7.41895 28.7442 4.45632C25.4698 1.49369 21.1835 -0.0996438 16.769 0.00483129C12.3545 0.109306 8.14839 1.90363 5.01784 5.01784C1.90363 8.14839 0.109306 12.3545 0.00483129 16.769C-0.0996438 21.1835 1.49369 25.4698 4.45632 28.7442C7.41895 32.0186 11.525 34.0314 15.9279 34.3676C20.3308 34.7039 24.6949 33.3379 28.1204 30.5514L39.1545 41.5854C39.4843 41.8679 39.9086 42.0155 40.3425 41.9987C40.7764 41.982 41.188 41.8021 41.495 41.495C41.8021 41.188 41.982 40.7764 41.9987 40.3425C42.0155 39.9086 41.8679 39.4843 41.5854 39.1545ZM7.44878 26.9653C5.51895 25.0367 4.20444 22.5791 3.67151 19.9034C3.13859 17.2276 3.4112 14.454 4.45486 11.9332C5.49853 9.41237 7.26635 7.25773 9.53473 5.74178C11.8031 4.22583 14.4701 3.41668 17.1984 3.41668C19.9267 3.41668 22.5937 4.22583 24.8621 5.74178C27.1305 7.25773 28.8983 9.41237 29.942 11.9332C30.9856 14.454 31.2582 17.2276 30.7253 19.9034C30.1924 22.5791 28.8779 25.0367 26.9481 26.9653C25.6732 28.2554 24.155 29.2797 22.4814 29.9788C20.8079 30.6779 19.0122 31.0379 17.1984 31.0379C15.3847 31.0379 13.589 30.6779 11.9154 29.9788C10.2418 29.2797 8.7236 28.2554 7.44878 26.9653Z" fill="white"/>
</svg>
